<svg width="264" height="131" viewBox="0 0 264 131" fill="none" xmlns="http://www.w3.org/2000/svg">
<g clip-path="url(#clip0_2_2)">
<rect width="264" height="131" fill="white"/>
<path d="M182.106 113.401L181.549 111.728L181.363 110.426L180.619 108.567L180.433 106.708L179.132 105.592L178.388 104.477L177.644 102.803L176.157 101.502L173.74 98.8991L172.438 97.9695L171.137 96.8539L170.207 96.1102L168.534 94.9947L166.861 94.4369L163.886 92.7636L162.77 91.834L160.911 91.4622L159.424 90.7185L158.122 90.3466L156.635 89.417L154.962 88.8592L153.288 89.0452L151.429 88.1155H150.314L148.268 87.1859H146.967L145.108 86.2563L143.806 86.4422L141.761 85.8845L140.088 85.3267L138.786 85.5126L137.299 84.7689L135.44 84.3971L133.58 84.7689L131.907 84.2112H130.42V82.9097L131.163 81.6082L131.535 79.5631L132.093 78.4475L132.279 76.9601L132.837 75.8446C132.651 76.0305 132.651 76.0305 132.279 77.1461C132.093 77.5179 131.907 77.8898 131.721 78.4475C131.535 78.8194 131.349 79.5631 131.163 80.3068C130.792 81.2364 130.42 82.5378 130.048 84.0252L129.304 83.8393C129.304 83.4675 129.49 83.0956 129.49 82.5378C129.49 81.9801 129.49 81.4223 129.676 80.8645C130.048 79.1912 130.42 77.332 131.349 75.6587C131.907 74.5431 131.721 74.1713 132.651 73.0558C132.837 72.8698 133.023 72.8698 133.023 72.6839C133.209 72.1261 133.395 71.7543 133.58 71.3824C133.766 71.0106 134.138 70.6387 134.324 70.081C134.882 69.1514 134.882 68.5936 134.882 68.4077C134.696 67.664 134.882 66.1766 135.44 65.9907C135.997 65.8047 136.183 65.247 136.183 64.6892C136.369 63.2018 136.927 61.9003 137.857 60.7848V60.5989L138.6 60.227L139.158 59.1115C138.972 59.1115 138.972 59.2974 138.786 59.4834L138.414 59.6693C138.414 59.2974 138.6 59.1115 138.786 58.9256C138.786 59.1115 138.786 59.2974 139.158 59.1115C139.716 57.996 139.53 58.5537 140.274 56.8804C141.947 53.7197 141.017 55.9508 143.992 48.6998C144.178 48.6998 144.364 48.5139 144.55 48.142C145.108 47.7702 146.595 44.6095 146.409 44.0517C146.223 43.308 146.409 42.9362 148.64 38.6599C148.826 38.2881 149.198 38.1022 149.384 37.7303L149.942 37.1725V37.3585V37.1725C149.756 36.6148 149.942 36.2429 150.314 35.3133C150.685 34.3837 151.429 33.0822 152.359 30.8512C152.731 30.1075 153.102 29.3638 153.474 28.9919C154.59 28.2482 154.962 27.1327 155.148 25.8312C155.705 24.9016 156.263 23.972 156.635 22.8564C156.821 21.9268 157.193 21.1831 157.565 20.2535C157.751 19.6958 157.936 19.138 158.122 18.5802C158.308 17.8365 158.494 17.0928 158.68 16.1632C158.866 15.6054 159.052 15.2336 159.238 15.0477C159.238 15.2336 159.238 15.4195 159.238 15.6054C159.052 16.3491 159.052 16.9069 158.866 17.2787C158.68 18.3943 158.494 18.9521 158.308 19.5098C157.936 20.6254 157.751 21.1831 157.193 22.8564C157.007 23.7861 156.263 25.0875 155.705 26.389C155.148 27.6905 154.59 28.9919 154.404 29.9215C154.404 30.4793 154.032 31.0371 153.846 31.5948C152.731 33.64 151.801 35.6852 150.871 37.7303L149.198 41.4488L144.178 51.3027C143.434 52.4183 143.063 53.7197 142.133 54.4634C142.133 54.6493 141.575 55.393 141.203 56.3226L140.274 57.996C139.902 59.1115 140.088 59.1115 139.902 59.4834L140.831 58.5537L141.575 57.0663L142.319 55.2071L143.063 53.9057L143.992 52.2323L144.736 50.559L145.665 49.2576L146.037 47.7702L147.339 46.2828L147.897 44.7954L148.64 43.1221L149.57 41.6347L150.314 40.5192L151.243 38.474L151.615 37.1725L152.731 35.4992L153.288 34.3837L153.846 32.3385L154.962 31.0371L155.705 29.3638L156.077 27.8764L156.821 26.0172L157.751 24.7157L158.308 22.8564L159.052 21.7409L159.238 19.6958L160.168 18.0224V16.721L160.539 15.0477L160.911 13.3744L160.539 11.887L160.168 10.5855L157.565 8.72627L155.705 8.9122L154.032 9.09811L152.359 9.28404L150.685 9.46997L149.384 10.0277L147.897 10.9574L146.409 11.5151L144.922 12.8166L143.62 13.5603L141.947 14.304L140.831 15.4195L139.344 16.1632L138.043 17.4647L136.369 18.3943L135.44 19.6958L133.952 20.6254L132.837 21.9268L131.721 22.4846L130.234 24.1579L129.118 24.9016L127.817 26.5749L126.701 27.3186L125.586 28.2482L124.098 30.1075L123.169 31.4089L121.867 32.1526L121.124 33.4541L120.008 35.1274L118.893 35.8711L117.591 37.5444L116.847 38.8459L115.546 39.7755L114.43 41.8206L113.501 42.5643L112.757 44.2376L111.456 45.9109L110.712 46.8406V47.0265L110.898 45.9109L111.642 44.6095L112.385 43.1221L113.687 41.4488L114.059 39.9614L114.988 38.474L115.546 36.8007L116.29 35.3133L117.219 34.3837L118.335 32.3385L119.078 31.0371L119.45 29.5497L120.194 28.0623L121.31 26.0172L121.681 24.5298L122.425 23.4142L123.541 21.1831L123.912 19.6958L124.842 18.3943L125.586 16.5351L126.144 14.6758L126.515 13.3744L126.887 11.5151L127.259 9.6559L127.817 8.35443L128.003 6.86705L127.817 4.63597L127.631 3.14857L127.073 2.03304L125.772 0.917496L122.797 0.173813H121.495L119.45 0.917496L118.149 1.47527L116.661 2.59081L114.988 2.77673L113.501 4.0782L112.199 5.00781L110.898 6.12335L109.596 6.86705L108.667 7.98259L106.993 9.28404L106.25 10.0277L104.576 11.3292L103.833 12.2588L102.345 13.5603L101.416 15.0477L100.114 15.7914L98.8128 17.0928L97.6973 18.5802L96.9536 19.8817L94.7225 22.4846L93.9788 23.972L91.7477 26.2031L90.8181 27.8764L89.7026 29.3638L88.9589 30.4793L88.587 31.0371L89.3307 29.3638L90.2603 27.5045L91.19 26.5749L91.9337 24.7157L92.4914 23.0424L93.421 21.555L93.7929 20.6254L94.9084 18.7661L95.838 17.4647L96.3958 14.304L95.0943 13.0025L94.1647 12.0729L92.3055 11.3292L90.8181 11.1433L89.5167 10.7714L87.6574 13.9321L86.7278 15.2336L84.8686 18.2084L84.1249 19.5098L83.1953 21.1831L82.6375 22.4846L81.8938 24.3438L80.9642 26.0172L80.2205 27.1327L79.8486 28.806L78.919 30.1075L77.9894 32.1526L77.6176 33.4541L76.6879 34.7555L75.7583 36.8007L75.0146 37.9162L74.6428 39.5896L73.5272 40.891L72.7836 42.3784L72.0399 44.0517L71.668 45.9109L70.5525 47.0265L70.1806 48.5139L69.0651 50.559L68.8792 51.8605L68.1355 53.7197L67.2059 55.2071L66.4622 56.5086L65.9044 58.1819L65.1607 59.6693L64.417 60.7848L63.8592 62.2722L63.1155 63.5737L62.5578 65.247L61.8141 66.9203V69.1514L63.1155 70.2669L64.7888 71.1965L65.9044 71.5684L67.7636 71.7543L69.0651 71.9402L70.7384 68.9654L71.1102 67.2921L72.0399 65.4329L72.4117 64.1314L72.9695 63.0159L73.5272 60.9707L74.4569 59.6693L75.2006 57.996L75.7583 56.3226L76.6879 54.8353L77.0598 53.5338L78.1753 52.2323L78.919 50.7449L79.2909 48.6998L80.4064 47.5843L80.5923 47.0265L81.1501 46.2828L82.0797 44.6095L82.8234 43.308L83.753 41.4488L84.6826 40.1473L85.6123 39.0318L86.17 37.3585L87.2856 36.2429L88.4011 34.3837L89.3307 33.2682L90.4463 31.7808L91.19 30.2934L92.1196 29.1778L93.0492 27.8764L94.1647 26.389L95.0943 24.7157L96.3958 23.4142L97.3254 22.1128L98.6269 20.8113L99.7424 19.3239L101.044 18.3943L101.974 17.0928L102.903 15.2336L104.576 14.6758L105.692 12.8166L106.622 11.701L108.295 10.5855L109.225 9.46997L110.34 8.54036L111.642 7.4248L113.129 5.93742L114.616 5.00781L115.732 4.82188L117.219 3.70634L118.707 3.14857L119.822 2.59081L121.31 2.03304L122.611 2.40489L124.47 3.89227L123.912 5.19373L123.727 6.86705L122.611 8.72627L122.053 10.0277L121.495 11.1433L120.38 13.0025L119.636 14.6758L118.893 15.9773L118.335 17.0928L117.219 18.9521L116.104 19.8817L115.732 21.3691L114.616 22.6705L113.501 24.1579L112.943 25.6453L112.013 27.5045L111.084 28.806L110.34 29.7356L109.225 31.7808L108.853 32.5245L107.923 34.1978L106.808 35.8711L105.878 37.1725L105.134 38.2881L104.205 39.7755L103.461 41.2629L102.717 42.9362L101.974 44.0517L100.858 45.9109L100.114 47.0265L99.5565 48.6998L98.8128 50.3731L98.255 51.4886L97.3254 52.976L96.3958 55.0212L95.838 56.1367L95.4662 57.4382L94.5366 59.2974L93.9788 61.1567V62.2722L94.1647 65.6188L96.024 65.9907L97.5114 66.5484L99.3706 67.1062L100.672 66.7344L102.717 64.5033L103.275 63.0159L103.461 62.4581L103.833 62.2722L104.762 60.227L105.692 59.2974L106.25 57.2523L107.365 56.1367L107.923 54.2775L109.225 53.3479L110.154 51.6746L111.084 50.3731L112.013 49.2576L112.571 47.2124L114.059 46.2828L114.802 44.6095L115.918 43.6799L116.847 42.0065L118.149 40.3332L118.893 39.0318L120.008 37.7303L121.31 36.6148L122.425 35.3133L123.541 34.0118L124.842 32.8963L125.958 31.4089L126.887 30.1075L128.189 29.3638L129.304 27.8764L130.978 26.5749L132.093 25.2735L133.395 24.3438L134.696 22.6705L135.626 21.7409L137.299 20.8113L138.414 19.5098L139.902 18.5802L141.389 17.0928L142.505 16.721L143.806 15.7914L145.108 14.4899L146.781 13.7462L148.083 12.6307L149.57 11.887L150.871 11.701L152.173 11.1433L153.102 10.7714L154.776 12.6307L154.404 14.1181L153.66 15.9773L153.102 17.4647L152.359 18.5802L151.615 20.0676L150.871 21.9268L149.942 23.6001L149.012 24.9016L148.64 26.5749L147.339 27.8764L146.781 29.5497L146.037 30.6652L144.736 32.1526L143.992 33.4541L143.063 34.9415L142.133 36.6148L141.389 38.2881L140.46 39.7755L139.53 41.2629L138.972 42.1925L138.043 43.8658L137.299 45.1673L136.369 47.0265L135.812 48.142L135.068 49.6294L133.766 51.4886L132.465 54.2775L131.535 56.3226L130.978 57.6241L130.234 59.6693L129.49 61.3426L128.746 62.644L128.189 64.6892L128.003 66.1766L127.073 67.664L126.515 69.7091L126.329 71.3824L125.586 72.8698L125.214 75.1009L125.028 76.7742L124.284 78.0757L124.098 80.3068L123.541 81.7941V83.2815L122.239 83.6534L120.566 83.4675L116.847 83.0956H115.546L113.687 83.6534L112.013 83.8393L110.526 84.0252L108.667 83.4675L106.808 83.6534L105.32 83.8393L103.461 84.3971H101.788L100.672 84.9548L98.9987 85.6985L95.4662 86.0704L93.7929 86.8141L92.3055 86.6282L90.4463 87.7437L89.1448 88.3015L87.6574 88.8592L85.7982 89.2311L84.3108 89.6029L82.6375 89.9748L81.1501 91.2762L79.8486 91.4622L78.3612 92.3918L76.6879 93.3214L75.7583 94.251L74.085 94.8088L72.7836 95.7384L71.4821 96.8539L70.1806 97.4117L69.0651 98.7132L67.5777 99.6428L65.3466 101.688L63.8592 102.989L62.7437 104.477L61.8141 105.964L61.0704 107.08L59.9548 108.753L59.583 110.612L58.6534 111.914L58.0956 113.587L57.9097 115.074L57.3519 116.562L57.5378 118.607L57.7238 120.28L58.0956 121.768L58.6534 123.441L59.583 125.114L61.0704 126.23L64.2311 127.345L65.7185 126.602V124.742L65.3466 122.697L62.7437 120.652L61.4422 119.165L60.6985 118.235L60.5126 116.19V114.889L60.3267 113.215L61.0704 111.356L61.4422 110.054L62.3718 108.195L63.3015 107.452L64.0452 105.592L64.9748 104.477L66.2762 103.175L68.3214 100.758L69.9947 99.8287L71.4821 98.7132L72.4117 98.3413L73.8991 97.0399L75.5724 96.668L76.6879 95.5525L78.1753 94.8088L79.6627 94.0651L81.336 93.1355L82.8234 92.2059L84.1249 92.0199L85.6123 91.4622L87.2856 90.9044L88.773 89.9748L90.8181 89.417L91.9337 89.0452L93.7929 88.3015L95.6521 88.1155L96.7677 87.5578H98.441L100.486 87.1859L101.788 87L103.461 86.4422H105.32L106.808 86.2563L108.481 85.8845L110.154 85.5126L111.827 85.6985L113.687 85.3267L115.36 85.5126L117.033 84.7689L118.707 84.9548L120.008 84.7689L122.053 84.9548L123.169 85.3267V86.8141V89.0452V90.3466L122.797 92.2059L122.983 93.8792L123.355 95.7384V97.4117L123.541 99.4569L124.284 100.758L124.656 102.246V104.477L125.4 105.964L126.144 107.452L126.515 108.939L127.259 110.426L128.375 111.728L128.932 113.215L130.048 114.331L130.792 116.19L131.907 117.12L133.209 118.235L133.952 119.165L135.068 120.838L136.555 121.768L137.671 122.883L139.158 123.627L140.646 124.185L141.947 125.3L143.248 125.858L144.922 126.788L146.037 127.531L147.339 128.275H149.384L150.871 129.205L152.173 129.576L153.846 129.391H154.962H155.148L157.007 130.134L158.494 129.762L159.982 130.134L161.655 130.32H163.328L165.373 129.948L166.675 129.762L168.534 129.391L170.207 129.019L171.509 128.461L173.182 127.531L174.855 126.788L176.157 125.858L177.272 124.928L178.574 123.999L179.318 122.883L180.061 121.396L180.805 119.537L181.549 118.049V116.376L181.921 114.703L182.106 113.401ZM125.772 4.0782H125.586H125.772ZM125.028 4.63597C125.028 4.45004 125.028 4.26411 125.028 4.26411H125.214H125.4C125.4 4.45004 125.4 4.45004 125.4 4.63597C125.4 5.00782 125.4 5.19373 125.214 5.56558C125.214 5.56558 125.028 5.56558 124.842 5.56558C125.028 5.19373 125.028 4.82189 125.028 4.45004V4.63597ZM122.983 10.0277C123.355 9.09812 124.098 7.61073 124.842 5.93742C124.842 6.30927 124.842 6.30928 125.028 6.30928C125.214 6.68113 124.47 6.86704 124.656 7.23889C125.028 7.98259 123.912 8.72627 123.912 9.28404C123.912 9.84181 123.912 10.2137 123.355 10.5855C123.169 10.7714 122.983 11.1433 122.983 11.5151C122.425 11.701 122.611 10.9574 122.983 10.0277ZM156.635 10.2137C157.007 10.2137 157.379 10.2137 157.565 10.3996C158.122 10.5855 158.308 10.7714 158.494 10.9574C158.494 11.1433 158.68 11.3292 158.68 11.3292C158.68 11.5151 158.494 11.701 158.494 11.701C158.494 11.5151 158.308 11.3292 158.122 11.1433C157.936 10.9574 157.751 10.7714 157.379 10.5855C157.193 10.3996 156.821 10.3996 156.449 10.3996C156.263 10.3996 155.891 10.3996 155.519 10.2137C155.891 10.2137 156.263 10.0277 156.635 10.2137ZM124.098 10.2137V10.3996C124.098 10.2137 124.098 10.2137 124.098 10.2137H124.284H124.098ZM159.052 12.4447C159.238 12.6307 159.238 12.8166 159.052 13.1884V13.0025V12.6307C158.866 12.6307 158.866 12.4447 158.866 12.4447C158.866 12.2588 158.866 12.2588 158.68 12.2588C158.68 12.0729 158.68 12.0729 158.68 11.887C158.866 12.0729 159.052 12.2588 159.052 12.4447ZM101.788 52.7901C101.974 52.6042 101.974 52.2323 101.974 52.0464C101.416 52.6042 101.044 53.3479 100.858 54.2775C100.672 54.8353 100.486 55.2071 100.114 55.9508L99.5565 57.0663C99.3706 57.6241 98.9987 58.1819 98.6269 59.1115C98.441 59.8552 98.255 60.7848 97.8832 61.5285C97.5114 62.2722 97.1395 63.0159 96.7677 63.7596C96.5817 62.4581 96.5817 62.2722 96.7677 61.7144C96.9536 61.5285 96.9536 61.1567 97.3254 60.227C97.5114 59.8552 97.6973 59.2974 97.8832 58.7397C98.0691 57.996 98.441 57.0663 98.9987 56.1367C100.672 52.0464 101.788 49.6294 102.531 47.9561L103.461 46.0969L104.019 45.1673C104.205 44.6095 104.391 44.4236 104.576 44.0517L104.948 43.308C105.134 42.9362 105.32 42.3784 105.692 41.8206C106.622 40.1473 107.551 38.474 108.481 37.1725L109.968 34.7555C110.154 34.0118 111.084 32.5245 111.827 31.0371C112.757 29.5497 113.873 27.8764 114.616 26.5749C114.802 26.0172 116.661 22.8564 118.335 19.5098C119.078 17.8365 120.008 16.1632 120.566 14.8618C121.31 13.5603 121.867 12.4447 122.053 12.0729C122.425 13.0025 122.425 13.0025 122.053 14.1181C121.867 14.304 121.867 14.4899 122.053 14.6758C121.681 15.2336 121.124 15.6054 121.124 16.3491C121.124 16.5351 120.938 16.721 120.752 16.721C120.752 16.9069 120.752 17.0928 120.752 17.0928V18.0224C120.008 17.8365 119.822 18.0224 119.636 18.5802C119.264 19.8817 118.707 21.3691 117.963 22.2987H118.335C118.893 21.3691 119.078 21.1831 119.264 20.8113C119.45 20.4394 119.822 19.8817 120.752 18.0224V17.0928C121.495 16.3491 121.124 16.9069 122.239 15.0477C122.239 15.9773 121.495 17.0928 120.752 18.5802C120.008 20.0676 119.078 21.7409 118.521 23.2283C118.521 23.4142 118.521 23.4142 118.521 23.4142C117.405 24.7157 117.033 26.2031 116.29 27.5045C114.802 30.1075 113.315 32.8963 111.642 35.4992L110.898 36.8007L109.968 38.1022C109.782 38.474 109.41 39.0318 109.039 39.5896L108.109 41.0769L107.179 42.5643C106.993 43.1221 106.808 43.4939 106.436 44.0517C106.25 44.4236 106.064 44.7954 105.878 44.9813C105.692 45.5391 105.506 45.9109 105.134 46.2828L104.948 46.6546V46.8406V46.6546C104.948 47.0265 104.762 47.3983 104.391 47.7702C104.576 47.3983 104.576 47.0265 104.948 46.6546C104.948 46.4687 104.948 46.2828 105.134 46.0969C105.32 45.725 105.692 44.7954 106.436 43.4939C106.622 42.9362 107.179 42.1925 107.551 41.4488C107.551 41.2629 107.737 41.0769 107.923 40.891L109.596 37.9162L110.34 36.8007C110.712 36.057 111.084 35.3133 111.642 34.7555C112.385 33.4541 112.943 32.3385 113.129 31.7808V31.5948C113.315 31.5948 113.501 31.4089 113.501 31.223C115.918 27.3186 116.661 25.6453 117.219 24.9016C117.591 24.1579 117.405 24.1579 117.777 23.6001C117.219 23.6001 116.847 23.7861 116.847 24.1579C116.661 24.7157 116.29 25.0875 116.29 25.4594C116.104 26.0172 115.546 26.389 115.732 26.9468C115.732 26.9468 114.988 27.6905 114.988 27.8764C114.43 29.7356 112.943 30.2934 113.129 31.5948V31.7808C112.943 31.7808 112.943 31.7808 112.757 31.9667C112.199 32.7104 111.456 33.64 111.084 34.5696C110.712 35.4992 109.968 36.6148 109.41 37.5444C108.667 38.6599 108.109 39.5895 107.737 40.3332C107.737 40.5192 107.551 40.7051 107.551 40.7051C107.365 41.0769 107.179 41.2629 106.993 41.4488C106.25 42.9362 105.692 43.6799 105.506 44.2376C105.32 44.7954 105.134 44.7954 105.134 44.9813C104.576 45.5391 104.391 46.0969 104.205 46.6546C103.833 47.2124 103.647 47.7702 103.275 48.5139C103.089 49.0716 102.903 49.4435 102.717 50.0013L102.159 51.4886C101.974 51.6746 102.159 51.6746 102.159 51.8605C102.717 50.9309 102.717 50.9309 103.833 48.8857V49.0716V48.8857C103.647 49.4435 103.647 50.0013 103.461 50.3731C103.275 50.9309 102.903 51.3027 102.717 51.6746C102.531 52.0464 102.345 52.2323 102.159 52.6042C102.159 52.7901 101.974 52.7901 101.788 52.7901ZM159.238 14.8618C159.052 14.4899 159.052 13.9321 159.052 13.3744C159.238 13.9321 159.238 14.4899 159.238 14.8618ZM122.239 14.4899L122.053 14.6758V14.1181L122.239 14.4899ZM93.7929 14.304L93.9788 14.6758L93.7929 14.304ZM122.425 14.6758C122.611 14.8618 122.611 14.8617 122.425 15.0477V14.6758ZM93.9788 14.6758C93.7929 14.8618 93.7929 14.8617 93.607 15.0477C93.421 14.4899 93.7929 14.6758 93.9788 14.6758ZM91.5618 18.0224C91.7477 17.8365 91.7477 17.6506 91.9337 17.4647C92.4914 16.9069 92.1196 16.9069 93.0492 15.7914C93.0492 16.3491 92.8633 16.721 92.8633 17.0928C92.4914 17.2787 92.6773 17.4647 92.8633 17.8365H92.1196L91.9337 18.2084C91.7477 18.2084 91.5618 18.0224 91.5618 18.0224ZM93.607 16.1632C93.7929 16.5351 93.607 16.5351 93.421 16.9069C93.2351 16.3491 93.2351 16.1632 93.607 16.1632ZM93.0492 17.2787H92.8633C92.8633 17.0928 92.8633 17.0928 92.8633 17.0928C93.0492 17.0928 93.0492 17.0928 93.0492 17.2787ZM85.7982 27.1327C85.7982 26.7608 85.9841 26.389 86.17 26.2031C86.9137 25.4594 86.5419 25.4594 86.9137 25.0875C87.0996 24.7157 87.2856 24.1579 87.6574 23.7861C88.2152 23.2283 88.587 22.4846 89.1448 21.9268C89.3307 21.555 89.5166 21.1831 89.7026 20.8113C89.8885 20.4394 90.0744 20.2535 90.2603 20.0676C90.4463 19.8817 91.004 18.7661 91.19 18.3943C91.19 18.2084 91.3759 18.3943 91.7477 18.3943C91.19 19.8817 91.004 20.0676 91.19 20.4395C91.3759 20.6254 91.004 20.9972 90.8181 21.1831L90.6322 20.8113L90.8181 21.1831C90.8181 21.555 90.8181 21.555 90.4463 21.555C90.4463 21.9268 90.2603 22.1128 90.0744 22.4846C88.9589 23.6001 89.7026 24.1579 88.9589 23.972C88.587 24.5298 88.2152 24.9016 88.2152 25.6453C88.2152 25.8312 88.0293 26.0171 87.8433 26.2031C87.8433 26.2031 87.8433 26.2031 87.6574 26.2031C87.4715 26.2031 87.4715 26.2031 87.2856 26.389C87.0996 26.9468 87.2856 27.6905 86.17 28.4341C85.6123 28.6201 85.6123 29.1778 85.2404 29.5497L85.0545 29.7356C84.8686 28.806 86.7278 27.1327 85.7982 27.1327ZM91.7477 19.6958C91.7477 19.5098 91.7477 19.5098 91.7477 19.5098C91.7477 19.5098 91.7477 19.5098 91.7477 19.6958ZM90.4463 21.555C90.4463 21.3691 90.4463 21.1831 90.4463 21.1831C90.2603 20.9972 90.0744 21.1831 90.0744 21.1831C89.8885 21.3691 89.7026 21.555 89.7026 21.7409C89.7026 21.9268 89.5166 21.9268 89.8885 22.1128L90.4463 21.555ZM117.963 22.2987C117.963 22.4846 117.963 22.4846 118.149 22.6705C118.149 22.4846 118.149 22.4846 117.963 22.2987ZM88.9589 23.0424C88.4011 23.6001 88.4011 23.6001 88.4011 24.1579L88.9589 23.972C89.1448 23.6001 89.3307 23.2283 88.9589 23.0424ZM87.2856 26.389V25.2735C86.9137 25.8312 86.356 26.2031 87.2856 26.389ZM85.7982 27.1327C85.4263 28.2482 85.6123 28.0623 85.0545 27.8764C85.2404 27.6905 85.4263 27.3186 85.7982 27.1327ZM84.3108 29.1778H84.4967L84.3108 29.3638V29.1778ZM81.7079 34.1978C81.8938 33.64 82.2656 32.8963 82.6375 32.3385C82.6375 31.9667 82.8234 31.9667 83.1953 31.9667L83.0093 31.4089C84.3108 29.1778 83.939 29.5497 84.3108 29.3638L85.0545 29.9215C85.0545 29.9215 84.8686 29.9215 84.8686 30.1075C84.6826 30.6652 84.3108 31.0371 83.753 31.5948C83.5671 31.9667 83.1953 32.3385 83.0093 32.7104C83.0093 32.8963 83.0093 33.0822 83.0093 33.2682C83.0093 33.64 83.0093 34.0118 82.4516 34.0118C82.0797 34.0118 82.0797 34.1978 82.0797 34.3837H81.8938L81.7079 34.1978ZM85.0545 29.9215C85.0545 29.9215 85.0545 29.9215 85.0545 29.7356C85.0545 29.9215 85.0545 29.9215 85.0545 29.9215ZM85.2404 30.1075H85.4263V30.2934C85.2404 30.2934 85.2404 30.2934 85.2404 30.2934V30.1075ZM152.545 31.5948C151.615 33.4541 151.987 32.8963 151.057 34.1978C151.987 33.2682 152.173 33.2682 152.545 31.5948ZM82.0797 34.3837C82.2656 34.5696 82.2656 34.5696 82.2656 34.5696C82.0797 34.5696 82.0797 34.5696 82.0797 34.3837ZM81.336 35.1274L81.5219 35.3133H81.336V35.1274ZM81.336 35.3133V35.4992H80.9642L81.336 35.3133ZM81.336 35.8711V35.4992L81.5219 35.3133C81.7079 35.6852 81.7079 35.6852 81.336 35.8711ZM80.7783 36.6148C80.9642 36.4289 80.9642 36.057 81.336 35.8711C81.5219 36.2429 80.9642 36.4289 80.9642 36.8007C80.7783 36.8007 80.7783 36.6148 80.7783 36.6148ZM82.2656 36.9866C82.0797 37.1725 82.0797 37.5444 81.7079 37.3585V37.5444L81.5219 37.3585H81.7079C81.7079 36.9866 81.7079 36.6148 82.0797 36.2429C82.4516 36.6148 82.2656 36.8007 82.2656 36.9866ZM78.1753 36.6148L78.5472 36.8007H78.1753V36.6148ZM149.942 37.3585L149.384 37.7303C149.57 38.1022 149.57 37.9162 149.942 37.3585ZM80.4064 37.5444C80.4064 37.5444 80.4064 37.5444 80.4064 37.7303C80.2205 37.5444 80.2205 37.5444 80.4064 37.5444ZM79.1049 39.2177C79.1049 39.2177 79.1049 39.0318 79.1049 38.8459C79.1049 38.6599 79.2909 38.6599 79.2909 38.474C79.4768 38.2881 79.4768 38.1022 79.4768 38.1022C79.6627 37.7303 79.8486 37.5444 80.4064 37.7303C80.0346 38.2881 79.4768 39.0318 79.1049 39.7755L78.919 39.5896C78.919 39.5896 78.919 39.4036 78.919 39.2177H79.1049ZM81.1501 38.1022C81.1501 37.9162 81.336 37.9162 81.336 37.9162C81.7079 38.1022 81.7079 37.9162 79.8486 41.6347C79.6627 41.4488 79.8486 41.2629 79.2909 41.0769C79.2909 41.0769 79.2909 41.0769 79.2909 40.891C79.2909 40.7051 79.4768 40.5192 79.6627 40.3332C79.8486 39.9614 80.0346 39.5896 80.2205 39.2177C80.4064 38.8459 80.5923 38.2881 81.1501 37.9162V38.1022ZM76.3161 39.4036V39.5896C76.3161 39.5896 76.3161 39.5896 76.1302 39.5896L76.3161 39.4036ZM74.4569 51.3027C74.2709 50.559 74.2709 50.559 74.4569 50.0013C74.4569 50.0013 74.4569 49.8153 74.4569 49.6294C74.4569 49.4435 74.4569 49.0716 74.6428 49.0716C75.0146 48.8857 75.0146 48.6998 75.0146 48.3279C75.0146 48.142 75.2006 47.7702 75.3865 47.5843C75.5724 47.5843 75.5724 47.3983 75.5724 47.2124V47.0265C75.9442 46.8406 75.9442 46.6546 75.9442 46.4687C76.1302 46.0969 76.3161 45.725 76.6879 45.5391V45.3532C77.2457 44.4236 77.6176 44.2376 77.4316 43.4939C78.1753 43.1221 78.7331 42.3784 79.1049 41.6347H79.8486L78.3612 44.4236C77.4316 46.4687 76.502 48.3279 75.5724 50.1872C75.0146 50.9309 74.6428 51.8605 74.2709 52.7901C74.2709 52.976 74.2709 53.162 73.8991 53.162L73.5272 52.7901V52.976V52.7901C73.7132 52.4183 73.5272 52.7901 73.8991 51.8605C73.8991 51.6746 73.5272 51.4886 73.7132 51.3027C73.8991 51.1168 74.085 50.9309 74.4569 51.1168V51.3027ZM75.2006 42.1925C75.3865 42.3784 75.3865 42.3784 75.2006 42.3784V42.1925ZM73.8991 44.0517L73.7132 43.8658C73.7132 43.8658 73.7132 43.8658 73.8991 44.0517ZM76.502 44.0517L76.3161 44.2376C76.3161 44.2376 76.3161 44.0517 76.1302 44.0517H76.502ZM76.1302 44.6095V44.2376L76.3161 44.6095H76.1302ZM75.5724 45.1673C75.7583 45.5391 75.7583 45.5391 75.5724 45.5391V45.1673ZM77.0598 45.5391H76.8739L76.6879 45.3532C76.6879 45.5391 76.8739 45.5391 76.8739 45.5391H77.0598ZM72.5976 45.3532L72.9695 45.9109C72.5976 45.9109 72.7836 46.4687 72.2258 46.4687C72.2258 45.9109 72.2258 45.9109 72.5976 45.3532ZM75.3865 45.725V46.0969C75.3865 45.725 75.3865 45.725 75.3865 45.725ZM74.8287 46.6546C75.0146 46.8406 74.8287 47.0265 74.6428 47.0265C74.6428 46.8406 74.6428 46.6546 74.8287 46.6546ZM72.0399 47.0265C72.2258 47.2124 72.2258 47.3983 72.0399 47.9561C71.668 47.3983 71.668 47.2124 72.0399 47.0265ZM74.6428 47.0265V47.3983C74.4569 47.2124 74.4569 47.2124 74.6428 47.0265ZM74.6428 47.3983C74.4569 47.5843 74.4569 47.5842 74.2709 47.7702C74.2709 47.5842 74.2709 47.3983 74.6428 47.3983ZM73.8991 48.8857C73.8991 49.2576 73.8991 49.4435 73.5272 49.6294H73.3413L73.5272 49.8153H73.3413V49.6294C73.5272 49.2576 73.5272 49.2576 73.8991 48.8857ZM109.41 48.8857L109.225 49.0716V48.8857H109.41ZM102.159 51.8605H101.974H102.159ZM71.1102 53.9057L71.2962 53.3479C71.2962 53.7197 71.2962 53.7197 71.1102 53.9057ZM101.416 54.0916C101.416 54.0916 101.416 54.0916 101.416 53.9057C101.602 54.0916 101.416 54.0916 101.416 54.0916ZM70.9243 54.0916H71.1102H70.9243ZM73.1554 55.0212C72.9695 55.2071 72.9695 55.2071 72.9695 55.393C72.7835 55.393 72.7836 55.393 72.5976 55.393C72.2258 55.0212 72.5976 55.0212 72.9695 55.0212H73.1554ZM70.7384 55.0212V55.5789C70.5525 55.2071 70.5525 55.2071 70.7384 55.0212ZM69.4369 58.9256C69.251 58.9256 69.251 58.7397 69.251 58.7397C69.8088 57.2523 69.9947 56.5086 70.1806 56.1367C70.3665 55.7649 70.5525 55.7649 70.7384 55.5789C70.3665 56.1367 70.3665 56.6945 70.1806 57.0663C70.1806 57.2523 70.3665 57.2523 70.3665 57.2523C69.9947 57.6241 69.8088 57.996 69.4369 58.9256ZM140.274 56.8804L140.088 55.9508C140.46 56.1367 140.274 56.5086 140.274 56.8804ZM70.5525 57.996C70.1806 57.6241 70.3665 57.4382 70.3665 57.2523C70.5525 57.4382 70.5525 57.0663 70.7384 57.0663C70.7384 57.4382 70.5525 57.6241 70.5525 57.996ZM138.786 61.3426L137.671 63.9455L136.741 65.6188V65.8047V65.6188C137.485 64.8751 138.414 62.2722 138.972 61.3426C139.716 60.227 139.902 59.6693 139.902 59.4834L139.53 59.8552L138.786 61.3426ZM71.2962 59.6693V59.4834C71.2962 59.4834 71.2962 59.4833 71.2962 59.6693ZM68.1355 59.8552H67.9495L68.1355 59.4834H68.3214L68.1355 59.8552ZM68.8792 60.0411C68.8792 60.227 68.8792 60.227 68.6932 60.413C68.6932 60.227 68.6932 60.0411 68.8792 60.0411ZM68.6932 60.413C69.0651 60.9707 68.6932 60.9707 68.3214 61.5285C68.3214 60.9707 68.5073 60.7848 68.6932 60.413ZM67.9495 60.7848L67.5777 61.7144L67.3918 62.4581C67.2058 63.3877 67.0199 64.1314 66.834 64.8751C66.6481 65.6188 66.4622 66.3625 66.0903 66.7344C66.4622 64.8751 66.834 63.5737 67.0199 62.644C67.2058 61.7144 67.2059 61.1567 67.7636 60.5989L67.9495 60.7848ZM137.671 60.7848V60.5989V60.7848ZM137.671 61.1567C137.671 60.9707 137.671 60.9707 137.671 60.7848C137.485 61.1566 137.671 60.9707 137.671 61.1567ZM98.0691 63.2018C97.8832 62.4581 98.441 62.2722 98.6269 61.7144C98.6269 62.2722 98.441 62.644 98.0691 63.2018ZM68.6932 62.83H68.8792C68.8792 62.83 68.8792 62.83 68.6932 62.83ZM135.812 67.478C135.44 67.8499 135.254 68.2217 135.068 68.5936C135.068 68.7795 135.068 68.7795 135.068 68.7795L135.254 68.5936L136.183 67.1062L136.741 65.8047C136.555 65.9907 136.369 66.1766 136.369 66.1766C136.183 66.7344 136.183 67.1062 135.812 67.478ZM134.138 71.3824C134.138 71.1965 134.324 71.0106 134.51 71.0106C135.068 70.4528 135.068 70.081 135.068 69.5232C135.068 69.3373 135.068 69.1514 135.068 68.7795L134.51 70.081L134.138 71.3824ZM65.7185 69.8951C65.7185 69.7091 65.7185 69.5232 65.7185 69.3373C65.9044 69.7091 65.9044 69.7091 65.7185 69.8951ZM133.766 72.3121C133.58 72.6839 133.395 73.2417 133.209 73.6135C133.023 73.9854 133.023 74.5431 133.023 74.915V75.1009L133.58 73.4276L133.952 72.3121H133.766H133.952L134.138 71.5684V71.3824C133.952 71.7543 133.952 71.9402 133.766 72.3121ZM134.138 72.3121C134.138 72.3121 133.952 72.1261 133.952 72.3121C133.952 72.3121 133.952 72.3121 134.138 72.3121ZM132.651 75.8446L132.837 75.6587C132.837 75.6587 133.023 75.2868 133.023 75.1009L132.837 75.2868L132.651 75.8446ZM132.093 75.1009C132.093 75.1009 131.907 75.1009 131.907 75.2868H132.093V75.1009ZM128.932 88.1155V87.5578V86.2563C128.932 86.0704 128.932 85.6985 128.932 85.5126L129.49 85.6985C129.49 86.0704 129.49 86.2563 129.304 86.6282C129.304 87.1859 129.118 87.7437 128.932 88.1155ZM180.061 116.934L179.504 118.049L178.76 119.351L178.202 120.838L177.087 122.325L175.785 123.813L174.484 124.928L173.368 125.858L171.695 126.23L170.207 126.602L168.906 127.345L167.047 127.903L165.187 128.275H163.7H162.027L160.168 128.089H158.494H157.193L155.148 127.903H154.404L152.917 127.717L151.243 126.974L150.128 126.602L146.781 125.114L145.294 124.557L144.178 123.813L142.877 122.883L141.017 121.21L140.088 120.094L138.972 119.351L137.671 117.863L136.555 116.934L135.44 115.818L134.696 114.145L133.952 113.029L133.209 110.984L132.279 109.683L131.721 108.009L130.792 106.336V104.663L130.048 103.547V101.316L129.49 100.201L129.304 97.9695V96.4821L129.118 94.9947L129.49 93.1355L129.118 91.6481L129.676 89.7888L129.49 87.7437L129.862 86.0704L130.048 85.6985L131.907 85.8845L133.58 86.0704L135.254 86.6282L136.927 86.2563L138.229 86.6282L139.902 87.3718L141.947 87.1859L143.434 87.9296L145.108 87.7437L146.781 88.6733L147.897 88.4874L149.57 89.2311L151.429 89.7888L153.102 89.9748L154.59 90.3466L155.705 91.2762L157.565 92.0199L159.052 92.3918L160.539 92.9495L162.213 93.3214L163.7 94.4369L166.489 95.3665L167.604 96.4821L169.464 97.2258L170.393 98.3413L171.881 99.8287L173.182 100.758L174.298 101.688L175.599 103.175L176.715 104.105L177.272 105.406L178.388 107.452L179.132 108.567L179.504 109.869L180.061 111.728L180.247 113.029L180.061 114.703V116.934ZM128.746 89.7888C128.746 89.2311 128.746 88.8592 128.932 88.3015C129.118 88.8592 128.932 89.2311 128.746 89.7888ZM128.561 100.944C128.561 100.758 128.561 100.572 128.561 100.386C128.375 100.201 128.375 100.015 128.375 99.8287C128.375 99.4569 128.189 99.085 128.189 98.7132C128.189 98.3413 128.189 97.9695 128.189 97.5976C128.189 97.4117 128.003 97.2258 128.003 97.0399V96.4821C128.003 96.1102 128.003 95.9243 128.003 95.5525C128.003 95.1806 127.817 94.8088 127.817 94.4369C127.817 94.251 127.817 94.0651 127.817 93.8792C127.817 93.6932 127.817 93.6932 127.817 93.5073C127.817 93.1355 128.003 92.9495 128.003 92.5777C128.189 92.0199 128.189 91.2762 128.375 90.7185C128.375 90.1607 128.561 89.7888 128.746 89.7888C128.746 90.1607 128.746 90.3466 128.746 90.7185C128.746 90.9044 128.746 91.2762 128.746 91.4622C128.746 91.834 128.746 92.0199 128.746 92.3918L128.561 93.3214C128.561 93.8792 128.561 94.6229 128.561 95.7384C128.561 96.1103 128.561 96.668 128.746 97.2258V98.1554V98.7132L128.932 99.085C128.932 99.4569 129.118 100.015 129.118 100.015C128.932 100.572 129.304 101.502 128.932 101.874C128.932 101.502 128.746 101.13 128.561 100.944ZM129.304 102.618C129.118 102.432 129.118 102.246 129.118 101.874C129.304 102.246 129.304 102.432 129.304 102.618ZM129.676 103.733C129.304 103.547 129.304 103.175 129.304 102.803C129.49 102.989 129.676 103.361 129.676 103.733ZM129.676 105.035C129.676 104.663 129.49 104.105 129.676 103.733C129.862 104.291 130.048 104.849 129.676 105.035Z" fill="url(#paint0_linear_2_2)"/>
<path d="M202.869 33.0822L202.125 34.9415L201.382 35.8711L200.266 37.5444L199.336 38.6599L198.407 40.5192L197.849 41.8206L196.919 43.1221L195.618 45.1673L194.688 45.9109L193.945 47.7702L193.015 49.0716L192.085 50.1872L190.97 51.6746L189.668 52.976L188.553 54.4634L187.623 55.7649L186.508 56.5086L185.206 58.3678L183.905 59.2974L182.417 59.8552L181.116 61.1567L180 62.2722L178.141 62.83L177.026 63.2018L174.98 63.5737L173.865 64.6892H172.192L168.845 65.247L167.172 65.0611L165.126 64.6892L164.011 64.5033L162.895 63.2018L162.152 61.7144L161.78 60.9707H161.966L161.78 60.7848V60.9707L161.408 60.0411L161.594 58.5537L161.408 56.5086V54.8353L162.152 53.162V51.8605L162.709 50.1872L163.267 48.6998L163.825 46.8406L164.569 45.5391L165.312 44.2376L165.684 42.7502L166.428 40.7051L166.8 40.1473L167.358 39.9614L169.031 39.5896L170.518 38.6599L171.82 38.1022L173.493 37.3585L174.794 36.057L176.282 35.4992L177.397 34.7555L179.071 33.2682L180.558 32.5245L181.86 31.4089L182.789 30.4793L184.091 29.1778L185.206 28.2482L186.508 26.5749L187.437 25.6453L187.995 24.5298L189.668 21.7409L190.04 19.6958L189.668 18.5802L188.367 17.6506L185.206 16.5351H183.533L181.86 16.1632L180.372 17.0928L179.071 17.2787L177.211 17.6506L175.724 18.5802L174.423 18.9521L172.749 20.2535L171.448 20.9972L170.146 21.555L169.031 22.4846L167.729 23.972L166.242 25.4594L165.126 26.2031L164.197 27.5045L163.453 28.806L161.966 30.1075L161.222 31.4089L160.664 32.8963L159.363 34.7555L158.805 36.057L157.875 37.7303L157.318 38.8459L157.132 40.5192L156.388 42.0065L155.83 43.4939L155.458 45.5391L155.273 47.2124L154.715 48.6998L154.529 51.8605L154.343 53.162L154.529 55.0212L154.901 56.8804L155.273 57.996L155.83 59.6693L156.76 61.5285L158.061 62.83C158.061 63.0159 158.061 63.0159 158.061 63.0159C158.061 63.3877 158.247 63.5737 158.433 63.5737H158.619L158.805 63.9455L160.292 64.8751L161.78 65.247L163.267 66.1766L164.941 66.7344L166.428 67.1062L168.101 66.7344L171.448 66.5484L173.307 65.9907L174.609 65.6188L176.282 65.0611L177.769 64.6892L179.443 63.7596L180.744 63.2018L182.045 62.2722L183.719 61.7144L184.834 60.7848L185.95 59.6693L187.251 58.3678L188.367 57.0663L189.854 55.7649L190.598 54.2775L191.899 53.162L193.015 52.0464L194.13 50.9309L194.874 49.2576L195.99 47.5843L196.919 46.2828L197.663 44.9813L198.593 43.8658L199.708 42.5643L200.638 40.5192L201.01 39.4036L202.125 38.2881L202.869 36.8007L204.17 35.1274L204.914 34.0118L205.658 31.0371L202.869 33.0822ZM172.563 31.0371L173.307 29.7356L174.794 27.8764L175.538 26.5749L176.654 25.2735L177.769 24.3438L179.071 23.0424L180.186 21.3691L181.488 20.8113L182.789 19.8817L182.975 19.5098C183.161 19.6957 183.347 19.5098 183.533 19.3239L183.347 19.138L184.091 18.5802L187.623 19.5098L187.809 20.6254L186.322 23.972L185.392 25.0875L184.277 26.2031L181.86 29.1778L180.93 30.2934L179.628 30.8512L176.654 33.0822L175.538 33.8259L174.237 34.7555L172.749 35.4992L171.262 36.6148L169.775 36.9866L168.473 38.1022H168.287L169.217 36.4288L169.775 35.1274L170.704 33.8259L171.448 32.1526L172.563 31.0371ZM176.84 20.6254L177.211 21.1831H177.026L176.654 20.8113L176.84 20.6254ZM176.096 21.1831H176.282C176.282 21.3691 176.468 21.555 176.468 21.555H176.282C176.096 21.3691 176.096 21.3691 176.096 21.1831ZM175.538 21.9268H175.352H175.538ZM174.423 22.2987L174.237 22.1128L174.423 22.2987C174.609 22.2987 174.609 22.4846 174.794 22.4846C174.609 22.8564 174.423 23.2283 174.051 22.8564C173.865 22.1128 173.865 22.1128 174.423 22.2987ZM174.98 22.2987C174.98 22.6705 174.609 22.2987 174.423 22.1128L174.98 22.2987ZM174.423 22.2987V22.6705C174.609 22.6705 174.423 22.4846 174.423 22.2987ZM173.679 23.2283L173.865 23.4142L173.679 23.6001L173.493 23.4142L173.679 23.2283ZM171.448 23.972C171.82 23.6001 172.006 23.4142 172.935 23.6001C172.935 24.3438 172.749 24.5298 171.634 24.7157C171.448 24.3438 171.448 24.1579 171.448 23.972ZM172.192 24.1579L172.006 23.972L171.82 24.1579C172.192 24.3438 172.192 24.3438 172.192 24.1579ZM159.921 37.3585C159.921 37.1726 159.921 37.1726 160.107 36.8007C160.107 36.6148 160.292 36.4289 160.478 36.057C160.664 35.4992 161.036 34.5696 161.594 33.64C161.966 33.0822 162.338 32.5245 162.895 31.9667C163.267 31.4089 163.825 30.6652 164.569 30.1075C165.126 29.5497 165.498 28.9919 166.056 28.6201L166.428 28.2482C166.614 28.0623 166.614 28.0623 166.614 28.0623C166.8 27.3186 166.8 27.6905 169.589 25.4594C170.146 24.9016 170.332 24.7157 170.518 24.5298C170.704 24.5298 170.704 24.7157 171.262 24.9016L171.448 25.8312H171.262V25.6453C170.89 25.8312 170.146 26.389 169.589 26.9468C169.031 27.3186 168.473 27.8764 168.101 28.2482C167.358 28.6201 167.172 29.3638 166.614 29.9215C166.056 30.4793 165.498 31.0371 164.941 31.7808C164.755 31.9667 164.383 32.3385 164.197 32.7104C164.011 32.8963 163.825 33.0822 163.639 33.2682L163.453 33.4541L163.267 33.64C162.524 34.1978 162.524 34.5696 162.338 34.9415C162.338 35.3133 162.152 35.8711 161.78 36.8007C161.594 36.9866 161.408 36.9866 161.036 37.1725C160.664 37.1725 160.478 37.3585 160.478 37.7303C160.478 37.9162 160.292 38.1022 160.107 38.474C159.921 38.1022 159.735 38.1022 159.921 37.3585ZM173.493 24.7157C173.493 25.2735 173.307 25.2735 172.749 25.2735C172.749 24.5298 172.935 24.5298 173.493 24.7157ZM171.076 26.389C171.076 26.5749 171.076 26.5749 171.076 26.5749C171.076 26.5749 171.076 26.5749 171.076 26.389ZM173.679 27.1327H173.493H173.679ZM172.563 28.0623C172.192 28.2482 172.006 28.4341 171.634 27.6905L172.563 28.0623ZM169.403 30.4793C169.403 30.6652 169.217 30.8512 169.031 30.6652C168.845 30.4793 168.845 30.2934 168.845 30.1075H169.403C169.403 30.2934 169.403 30.4793 169.403 30.4793ZM167.172 31.223C166.8 31.0371 166.8 30.8512 166.986 30.8512C166.986 30.8512 167.172 30.8512 167.358 31.0371L167.172 31.223ZM165.126 30.8512L164.941 31.223C165.312 31.4089 165.312 31.223 165.126 30.8512ZM164.011 31.7808L163.825 31.5948V31.7808C164.011 31.7808 163.825 31.7808 164.011 31.7808ZM166.242 32.1526C166.242 32.3385 166.242 32.3385 166.056 32.1526C165.87 31.9667 165.87 31.9667 166.242 32.1526ZM162.895 34.3837V34.1978V34.3837ZM164.197 36.2429C164.011 36.2429 164.011 36.4288 164.011 36.4288C163.825 36.2429 164.011 36.2429 164.197 36.2429ZM163.453 37.7303C163.639 38.1022 163.453 38.1022 162.709 37.9162C162.895 37.9162 163.081 37.7303 163.453 37.7303ZM161.78 38.1022C161.966 38.474 161.966 38.6599 161.78 38.8459C161.222 38.2881 161.408 38.2881 161.78 38.1022ZM162.895 38.8459C162.895 39.0318 163.081 39.0318 162.709 39.0318V38.8459H162.895ZM157.132 60.0411C157.132 59.8552 156.946 59.6693 156.946 59.4834C156.76 59.2974 156.76 59.1115 156.76 58.9256C156.574 58.7397 156.388 58.7396 156.388 58.5537C156.388 58.3678 156.202 58.1819 156.202 57.996C156.016 57.81 156.016 57.4382 156.016 57.0663C156.016 56.6945 156.016 56.3227 156.016 55.9508C156.016 55.2071 155.644 54.0916 155.458 52.976C155.458 51.8605 155.458 50.745 155.644 50.1872C155.83 50.0013 155.83 49.8153 155.644 49.6294C155.458 49.4435 156.016 49.4435 156.202 49.2576C156.016 48.8857 155.83 48.5139 155.644 48.142C155.644 47.7702 155.458 47.5842 155.644 47.2124C155.83 47.0265 155.83 46.6546 155.83 46.4687C156.016 46.2828 156.016 45.9109 156.016 45.725C156.016 45.5391 156.202 45.3532 156.202 44.9813C156.388 44.7954 156.388 44.6095 156.574 44.4236C156.574 44.4236 156.574 44.2376 156.76 44.0517C156.76 43.6799 156.946 43.308 156.946 42.9362C157.318 42.0066 157.69 40.891 158.433 39.7755C158.619 39.4036 158.805 39.2177 158.991 38.8459C158.991 38.8459 159.363 38.8459 159.363 39.0318C159.921 39.2177 159.549 39.4036 159.363 39.5896C159.363 39.9614 159.177 39.9614 159.549 40.5192V40.7051C159.735 40.3332 159.921 39.7755 160.292 39.0318C160.478 39.0318 160.664 39.0318 160.85 39.0318C161.036 39.5896 160.478 39.7755 160.478 40.1473C160.478 40.3332 160.292 40.5192 160.292 40.891L159.549 41.0769C159.549 41.2629 159.549 41.4488 159.549 41.8206C159.363 41.6347 159.363 41.6347 159.363 41.4488C159.363 41.2629 159.363 41.0769 159.549 41.0769H158.805L157.69 42.0065L159.177 42.3784H159.363H159.177C159.177 42.9362 158.991 43.308 158.805 43.6799C158.619 43.8658 158.619 44.2376 158.619 44.2376C158.619 44.4236 158.433 44.4236 158.247 44.6095C157.318 44.9813 157.504 45.1672 157.504 46.0969C157.504 46.2828 157.504 46.6546 157.504 46.8406C157.504 47.0265 157.504 47.2124 157.504 47.3983C157.504 47.5843 157.504 47.7702 157.504 47.9561C157.504 48.6998 157.318 49.8153 157.132 51.1168C157.132 51.3027 157.132 51.6746 157.318 51.8605C157.69 51.6746 157.69 51.4886 157.69 51.4886V51.1168L157.875 50.7449C157.875 50.7449 157.875 50.559 157.875 50.3731C157.875 50.1872 157.875 50.0013 157.875 50.0013C158.061 49.6294 158.061 49.6294 158.619 49.4435C158.619 49.6294 158.619 49.8153 158.619 50.0013C158.619 50.3731 158.619 50.559 158.433 50.7449C158.433 50.9309 158.247 51.1168 158.433 51.3027C158.619 51.4886 158.619 51.8605 158.619 52.0464C158.619 52.2323 158.433 52.4183 158.433 52.6042C158.433 52.7901 158.433 52.976 157.875 53.3479C158.061 53.3479 158.247 53.3479 158.247 53.5338C158.433 53.5338 158.433 53.7197 158.433 53.7197C158.619 53.9057 158.619 54.0916 158.991 54.0916C159.177 54.0916 159.177 54.2775 158.991 54.4634C158.991 54.6493 158.805 54.8353 158.805 54.8353C158.619 55.0212 158.619 55.2071 158.805 55.2071C158.805 55.579 158.991 55.7649 159.363 55.7649C158.991 55.9508 158.805 55.9508 158.805 55.9508C158.433 55.7649 158.247 55.579 158.247 55.393C158.061 55.2071 157.875 55.2071 157.875 55.0212C157.69 54.8353 157.69 54.8353 157.69 54.6493C157.69 54.6493 157.69 54.6493 157.69 54.4634C157.69 54.2775 157.504 54.0916 157.318 53.9057C157.318 54.0916 157.132 54.2775 157.132 54.4634C157.132 54.6493 157.132 54.6493 157.318 54.8353C157.504 54.8353 157.504 55.0212 157.69 55.0212L157.318 55.2071V55.393C157.318 55.579 157.504 55.7649 157.504 55.9508C157.504 56.1367 157.69 56.3226 157.69 56.3226C157.69 56.5086 157.69 56.6945 157.69 56.6945C157.875 56.8804 157.69 57.0663 157.69 57.0663C157.69 57.2523 157.504 57.2523 157.132 57.4382H157.318C157.69 57.4382 157.875 57.4382 157.875 57.4382H158.061C158.061 57.6241 158.061 57.6241 157.875 57.6241C157.875 57.6241 157.875 57.81 157.69 57.996C158.247 57.996 158.433 58.1819 158.061 58.5537C158.247 58.5537 158.619 58.5537 158.619 58.5537C158.619 58.7396 158.805 58.7397 158.805 58.9256C158.433 58.9256 158.247 58.9256 157.875 58.9256V59.1115C158.061 59.1115 158.061 59.1115 158.061 59.4834H157.875C157.875 59.2974 157.504 59.2974 157.69 59.1115L157.504 58.9256C157.504 58.9256 157.504 58.9256 157.318 58.7397L157.132 58.5537C157.132 58.3678 156.946 58.3678 156.946 58.3678C156.574 58.7396 156.76 58.9256 156.76 59.1115C156.946 59.4833 157.132 59.6693 157.132 60.0411C157.132 60.0411 157.318 60.0411 157.318 60.227C157.132 60.0411 157.132 60.0411 157.132 60.0411ZM159.549 41.0769C159.549 40.891 159.549 40.891 159.549 40.7051C159.549 40.891 159.549 40.891 159.549 41.0769ZM167.172 41.2629C167.172 41.6347 167.172 42.0065 167.358 42.0065C167.543 42.1925 167.543 42.0066 167.543 41.8206C167.543 41.6347 167.543 41.4488 167.543 41.2629H167.358H167.172ZM159.549 42.5643C159.735 42.5643 159.735 42.7502 159.921 42.7502C160.107 43.1221 159.735 43.4939 159.177 43.6799C159.177 43.1221 159.363 42.7503 159.549 42.5643ZM160.107 45.1673C159.921 45.3532 159.921 45.725 159.735 46.0969C159.549 46.2828 159.735 46.4687 159.177 46.4687C159.177 46.2828 159.177 46.0969 159.177 45.725C159.177 45.5391 159.177 45.3532 159.177 45.1673C159.177 44.6095 159.177 44.2376 159.177 43.8658V43.6799C160.478 44.2376 160.85 44.7954 160.107 45.1673ZM161.222 45.3532H161.408C161.408 45.3532 161.594 45.3532 161.594 45.5391L161.222 45.3532ZM159.177 47.0265C159.549 47.2124 159.549 47.0265 159.363 47.3983C159.177 47.2124 159.177 47.2124 159.177 47.2124C159.177 47.0265 159.177 47.0265 159.177 47.0265ZM159.363 50.0013C159.549 50.7449 159.735 51.3027 159.921 51.8605C159.921 52.2323 159.921 52.4183 160.107 52.7901V53.162C160.107 53.3479 160.292 53.3479 160.292 53.5338C159.921 53.5338 159.735 53.5338 159.735 53.5338C159.735 53.5338 159.549 53.3479 159.363 53.162C159.363 52.7901 159.177 52.4183 159.177 52.0464C158.991 51.3027 158.991 50.3731 159.363 50.0013ZM156.574 51.4886C156.016 51.6746 156.016 51.8605 156.388 52.0464C156.946 51.8605 156.76 51.6746 156.574 51.4886ZM156.946 52.4183C157.132 52.6042 157.132 52.7901 157.318 52.976C157.132 53.162 156.946 53.3479 157.132 53.5338C157.132 53.5338 157.132 53.5338 157.132 53.7197C157.318 53.7197 157.318 53.9057 157.318 53.9057L157.69 53.5338L157.875 53.3479C157.69 53.1619 157.504 53.162 157.318 52.976C157.504 52.7901 157.69 52.6042 157.504 52.4183C157.504 52.2323 157.504 52.0464 157.318 51.8605C156.946 52.0464 156.946 52.2323 156.946 52.4183ZM158.247 52.976C158.061 52.7901 158.061 52.7901 158.061 52.7901C158.061 52.976 158.061 52.976 158.247 52.976ZM155.087 53.162H154.901H155.087ZM156.946 54.8353C157.132 55.0212 157.132 55.0212 157.318 55.2071C157.318 55.0212 157.318 54.8353 157.318 54.8353C157.132 54.8353 157.132 54.8353 157.132 54.8353H156.946ZM159.177 55.393H158.991C159.177 55.393 159.177 55.393 159.177 55.393ZM159.549 56.5086H159.735H159.549C159.735 56.5086 159.735 56.5086 159.735 56.5086H159.549ZM156.946 58.1819H156.76C156.946 58.1819 156.946 58.1819 156.946 58.1819V58.3678H157.132C157.132 58.3678 157.132 58.3678 157.318 58.5537L157.504 58.7397L157.875 58.9256C157.875 58.9256 158.061 58.7396 158.061 58.5537L157.69 57.996C157.318 57.81 157.318 57.6241 157.318 57.4382C157.132 57.6241 156.946 57.81 156.946 57.996V58.1819ZM157.875 57.6241V57.4382V57.6241ZM160.107 57.81C160.292 57.6241 160.292 57.6241 160.292 57.81H160.107ZM157.69 59.1115H157.875H157.69ZM162.152 60.0411V60.227V60.0411ZM161.78 60.7848C161.966 60.5989 161.966 60.413 162.152 60.227C161.78 60.413 161.78 60.5989 161.78 60.7848ZM157.504 60.413C157.504 60.413 157.504 60.413 157.504 60.5989C157.69 60.7848 157.69 60.7848 157.875 60.9707C157.875 60.9707 157.875 61.1567 158.061 61.1567C157.875 61.1567 157.875 61.1567 157.875 61.1567C157.504 60.9707 157.318 60.7848 157.504 60.413ZM159.363 63.2018C159.549 62.83 159.549 62.644 159.549 62.644C159.549 62.4581 159.549 62.2722 159.549 62.0863V62.2722C159.735 62.4581 159.735 62.644 160.107 63.2018C159.735 63.2018 159.549 63.2018 159.363 63.2018Z" fill="url(#paint1_linear_2_2)"/>
<path d="M2.52209 54.6707C2.52209 55.0102 2.8131 55.3012 3.15261 55.3012C3.49213 55.3012 3.78314 55.0102 3.78314 54.6707V48.8747H8.36655C11.9072 48.8747 14.987 47.0317 14.987 43.4668V43.4183C14.987 40.1444 12.4164 38.2286 8.68181 38.2286H3.15261C2.8131 38.2286 2.52209 38.5196 2.52209 38.8591V54.6707ZM3.78314 47.7107V39.3927H8.58481C11.6404 39.3927 13.726 40.7992 13.726 43.4911V43.5396C13.726 46.0616 11.5919 47.7107 8.4393 47.7107H3.78314ZM25.3899 54.6707C25.3899 55.0102 25.6809 55.3012 26.0204 55.3012C26.3599 55.3012 26.6509 55.0102 26.6509 54.6707V47.2499H37.5153V54.6707C37.5153 55.0102 37.8064 55.3012 38.1459 55.3012C38.4854 55.3012 38.7764 55.0102 38.7764 54.6707V38.7621C38.7764 38.4226 38.4854 38.1316 38.1459 38.1316C37.8064 38.1316 37.5153 38.4226 37.5153 38.7621V46.0859H26.6509V38.7621C26.6509 38.4226 26.3599 38.1316 26.0204 38.1316C25.6809 38.1316 25.3899 38.4226 25.3899 38.7621V54.6707ZM58.2441 55.4952C63.3853 55.4952 66.8047 51.3483 66.8047 46.7164V46.6679C66.8047 42.036 63.4338 37.9376 58.2926 37.9376C53.1515 37.9376 49.7321 42.0845 49.7321 46.7164V46.7649C49.7321 51.3968 53.103 55.4952 58.2441 55.4952ZM58.2926 54.3554C54.0972 54.3554 51.0416 50.9118 51.0416 46.7164V46.6679C51.0416 42.4725 54.0487 39.0774 58.2441 39.0774C62.4395 39.0774 65.4952 42.521 65.4952 46.7164V46.7649C65.4952 50.9603 62.488 54.3554 58.2926 54.3554ZM81.1351 54.6707C81.1351 55.0102 81.4261 55.3012 81.7656 55.3012C82.1051 55.3012 82.3961 55.0102 82.3961 54.6707V39.3927H87.8283C88.1436 39.3927 88.4103 39.1259 88.4103 38.8106C88.4103 38.4954 88.1436 38.2286 87.8283 38.2286H75.7029C75.3876 38.2286 75.1209 38.4954 75.1209 38.8106C75.1209 39.1259 75.3876 39.3927 75.7029 39.3927H81.1351V54.6707ZM105.259 55.4952C110.4 55.4952 113.819 51.3483 113.819 46.7164V46.6679C113.819 42.036 110.448 37.9376 105.307 37.9376C100.166 37.9376 96.7466 42.0845 96.7466 46.7164V46.7649C96.7466 51.3968 100.117 55.4952 105.259 55.4952ZM105.307 54.3554C101.112 54.3554 98.0561 50.9118 98.0561 46.7164V46.6679C98.0561 42.4725 101.063 39.0774 105.259 39.0774C109.454 39.0774 112.51 42.521 112.51 46.7164V46.7649C112.51 50.9603 109.503 54.3554 105.307 54.3554ZM132.556 55.4952C135.078 55.4952 137.188 54.5495 138.788 53.3127C139.055 53.0944 139.225 52.8276 139.225 52.5851V47.0317C139.225 46.6922 138.934 46.4012 138.594 46.4012H132.725C132.41 46.4012 132.143 46.6679 132.143 46.9832C132.143 47.2984 132.41 47.5652 132.725 47.5652H138.012V52.4396C136.775 53.4824 134.762 54.3797 132.604 54.3797C128.069 54.3797 125.329 51.1058 125.329 46.7164V46.6679C125.329 42.5695 128.215 39.0774 132.337 39.0774C134.69 39.0774 136.121 39.7807 137.43 40.7992C137.576 40.9205 137.721 40.969 137.818 40.969C138.158 40.969 138.449 40.678 138.449 40.3384C138.449 40.1202 138.352 39.9504 138.206 39.8292C136.63 38.6409 134.956 37.9376 132.41 37.9376C127.342 37.9376 124.019 42.133 124.019 46.7164V46.7649C124.019 51.5423 127.196 55.4952 132.556 55.4952ZM150.457 54.6707C150.457 55.0102 150.748 55.3012 151.088 55.3012C151.427 55.3012 151.718 55.0102 151.718 54.6707V48.1715H157.272L162.486 54.9617C162.631 55.1557 162.801 55.3012 163.043 55.3012C163.383 55.3012 163.698 54.986 163.698 54.6465C163.698 54.5009 163.625 54.3554 163.504 54.2099L158.678 47.9532C161.54 47.5652 163.65 45.9404 163.65 43.103V43.0545C163.65 41.842 163.165 40.7022 162.364 39.9019C161.346 38.8834 159.672 38.2286 157.587 38.2286H151.088C150.748 38.2286 150.457 38.5196 150.457 38.8591V54.6707ZM151.718 47.0317V39.3927H157.514C160.594 39.3927 162.389 40.8235 162.389 43.103V43.1515C162.389 45.6009 160.279 47.0317 157.441 47.0317H151.718ZM173.487 54.7677C173.487 55.0587 173.754 55.3012 174.069 55.3012C174.36 55.3012 174.554 55.1315 174.675 54.8405L176.664 50.4511H186.68L188.668 54.8162C188.789 55.083 189.008 55.3012 189.299 55.3012C189.638 55.3012 189.905 55.0345 189.905 54.7192C189.905 54.598 189.881 54.4767 189.808 54.3312L182.581 38.6651C182.411 38.3014 182.169 38.0589 181.732 38.0589H181.684C181.247 38.0589 181.005 38.3014 180.835 38.6651L173.584 54.3797C173.511 54.5252 173.487 54.6707 173.487 54.7677ZM177.198 49.3113L181.684 39.4897L186.146 49.3113H177.198ZM200.479 54.6707C200.479 55.0102 200.77 55.3012 201.11 55.3012C201.449 55.3012 201.74 55.0102 201.74 54.6707V48.8747H206.324C209.864 48.8747 212.944 47.0317 212.944 43.4668V43.4183C212.944 40.1444 210.374 38.2286 206.639 38.2286H201.11C200.77 38.2286 200.479 38.5196 200.479 38.8591V54.6707ZM201.74 47.7107V39.3927H206.542C209.598 39.3927 211.683 40.7992 211.683 43.4911V43.5396C211.683 46.0616 209.549 47.7107 206.397 47.7107H201.74ZM223.347 54.6707C223.347 55.0102 223.638 55.3012 223.978 55.3012C224.317 55.3012 224.608 55.0102 224.608 54.6707V47.2499H235.473V54.6707C235.473 55.0102 235.764 55.3012 236.103 55.3012C236.443 55.3012 236.734 55.0102 236.734 54.6707V38.7621C236.734 38.4226 236.443 38.1316 236.103 38.1316C235.764 38.1316 235.473 38.4226 235.473 38.7621V46.0859H224.608V38.7621C224.608 38.4226 224.317 38.1316 223.978 38.1316C223.638 38.1316 223.347 38.4226 223.347 38.7621V54.6707ZM253.97 54.6707C253.97 55.0102 254.261 55.3012 254.601 55.3012C254.94 55.3012 255.231 55.0102 255.231 54.6707V48.4625L261.803 39.2229C261.9 39.0774 261.997 38.9076 261.997 38.7379C261.997 38.4226 261.682 38.1316 261.367 38.1316C261.1 38.1316 260.955 38.3014 260.809 38.4954L254.625 47.3469L248.465 38.4954C248.32 38.2771 248.15 38.1316 247.883 38.1316C247.544 38.1316 247.229 38.4226 247.229 38.7621C247.229 38.8834 247.277 39.0289 247.35 39.1501L253.97 48.4867V54.6707Z" fill="black"/>
</g>
<defs>
<linearGradient id="paint0_linear_2_2" x1="132" y1="1.62392e-07" x2="132" y2="130" gradientUnits="userSpaceOnUse">
<stop stop-color="#FF8ECB" stop-opacity="0.2"/>
<stop offset="1" stop-color="#FF8ECB"/>
</linearGradient>
<linearGradient id="paint1_linear_2_2" x1="132" y1="1.62392e-07" x2="132" y2="130" gradientUnits="userSpaceOnUse">
<stop stop-color="#FF8ECB" stop-opacity="0.2"/>
<stop offset="1" stop-color="#FF8ECB"/>
</linearGradient>
<clipPath id="clip0_2_2">
<rect width="264" height="131" fill="white"/>
</clipPath>
</defs>
</svg>
